<?xml version="1.0"?><svg width="640" height="480" xmlns="http://www.w3.org/2000/svg">
 <title>bigekg</title>
 <g>
  <title>Layer 1</title>
  <path d="m7.70342,276.012848l29.942851,0c27.104836,0 41.834579,-31.344208 61.841011,-31.132813c19.265945,0.203491 29.875237,32.378448 55.975761,32.378448l48.763748,0l34.465042,51.058228l37.765106,-184.308533l37.250427,218.414612l33.634613,-85.164307l69.052002,0c31.00177,-16.18924 77.648346,-42.341187 114.516113,-43.586792c38.661438,12.453491 36.257751,27.397552 65.141357,43.586792l29.943176,0l0,-8.717316l-29.943176,0c-28.883606,-16.18924 -18.658386,-27.397339 -65.141357,-43.586578c-46.645599,2.49057 -83.514343,27.397339 -114.516113,43.586578l-74.918579,1.245422l-21.901764,69.577545l-43.116699,-251.395569l-43.631668,219.177582l-20.776566,-38.60498l-56.585663,0c-26.100525,0 -36.709816,-34.665497 -55.975761,-34.869476c-20.006432,-0.210938 -34.736511,33.624054 -61.841011,33.624054l-29.942851,0l0,8.717102z" id="path634" stroke-linejoin="round" stroke-linecap="round" stroke-width="0.501308" stroke="#ffffff" fill-rule="evenodd" fill="#000" opacity="0.9"/>
 </g>
</svg>