<svg xmlns="http://www.w3.org/2000/svg" width="100" height="45" style=""><rect id="backgroundrect" width="100%" height="100%" x="0" y="0" fill="none" stroke="none" class="" style=""/>
 <title>bigekg</title>
 <g style="" class="currentLayer">
  <title>Layer 1</title>
  <path d="m0.25065396936501966,30.8590648120501 l4.804368048574479,0 c4.349004977523725,0 6.7124107411536995,-5.101971037475526 9.922467881897514,-5.067561772214551 c3.091245071606348,0.03312271244457462 4.793519297357156,5.2703167339371735 8.981381153152096,5.2703167339371735 l7.824204609639129,0 l5.5299592740042485,8.310868804878464 l6.059458687398482,-30.000336819025776 l5.976877795456286,35.551864146175085 l5.396715898007434,-13.862396132027778 l11.079480444226935,0 c4.974272932034922,-2.6351609713265143 12.458774635289602,-6.891975377598797 18.37425415315811,-7.094725456150303 c6.20327628251375,2.027084251018948 5.817601684541305,4.4595644848237885 10.452012542545912,7.094725456150303 l4.80442019523265,0 l0,-1.4189381896815516 l-4.80442019523265,0 c-4.634410858004607,-2.6351609713265143 -2.993761467014926,-4.459529814308873 -10.452012542545912,-7.094690622863017 c-7.4843449423776525,0.4053959827858926 -13.399981221123184,4.459529814308873 -18.37425415315811,7.094690622863017 l-12.02078009178895,0.20272029120770435 l-3.5141655405164576,11.325301932932874 l-6.918128505385245,-40.920252698287364 l-7.000755928191657,35.67605458169233 l-3.333626108265337,-6.283824107545545 l-9.079240695036122,0 c-4.187862016246195,0 -5.890136081545749,-5.642585121107375 -8.981381153152096,-5.6757872664687525 c-3.210057140743812,-0.034334878287657356 -5.573516815995774,5.473066975261047 -9.922467881897514,5.473066975261047 l-4.804368048574479,0 l0,1.4189033563942652 z" id="path634" stroke-linejoin="round" stroke-linecap="round" stroke-width="0.501308" stroke="#ffffff" fill-rule="evenodd" fill="#000" opacity="0.9" class=""/>
 </g>
</svg>