<svg width="175" height="35" xmlns="http://www.w3.org/2000/svg">

 <g>
  <title>background</title>
  <rect fill="none" id="canvas_background" height="37" width="177" y="-1" x="-1"/>
 </g>
 <g>
  <title>Layer 1</title>
  <path id="svg_1" d="m73.418615,33.255768c-2.3,0 -4.395,-0.435 -6.285,-1.307c-1.892,-0.871 -3.517,-2.027 -4.878,-3.469c-1.361,-1.442 -2.414,-3.092 -3.154,-4.948c-0.742,-1.856 -1.112,-3.756 -1.112,-5.698c0,-2.027 0.394,-3.97 1.181,-5.827c0.785,-1.855 1.867,-3.497 3.244,-4.925s3.01,-2.562 4.901,-3.405c1.891,-0.844 3.955,-1.265 6.194,-1.265c2.299,0 4.395,0.449 6.285,1.35c1.891,0.899 3.51,2.077 4.855,3.534c1.347,1.457 2.39,3.106 3.132,4.948c0.741,1.841 1.112,3.72 1.112,5.633c0,2.028 -0.387,3.97 -1.158,5.825c-0.771,1.857 -1.854,3.492 -3.244,4.906c-1.393,1.413 -3.033,2.541 -4.924,3.385c-1.891,0.842 -3.941,1.263 -6.149,1.263zm-10.256,-15.422c0,1.429 0.242,2.813 0.727,4.155c0.484,1.343 1.173,2.527 2.064,3.555c0.894,1.029 1.975,1.85 3.245,2.464s2.693,0.922 4.267,0.922c1.633,0 3.077,-0.321 4.334,-0.965c1.254,-0.642 2.321,-1.491 3.199,-2.549c0.877,-1.056 1.543,-2.241 1.996,-3.556c0.454,-1.312 0.682,-2.656 0.682,-4.026c0,-1.456 -0.243,-2.85 -0.727,-4.178c-0.484,-1.327 -1.173,-2.498 -2.064,-3.512c-0.894,-1.014 -1.968,-1.828 -3.223,-2.441c-1.256,-0.614 -2.655,-0.921 -4.197,-0.921c-1.634,0 -3.086,0.321 -4.356,0.963c-1.271,0.644 -2.346,1.479 -3.223,2.506c-0.878,1.028 -1.551,2.207 -2.02,3.534c-0.47,1.328 -0.704,2.678 -0.704,4.049z" fill="#1E1E1E"/>
  <path id="svg_2" d="m126.081615,30.294768c-0.057,-0.356 -0.172,-0.683 -0.34,-0.991c-0.303,-0.563 -0.621,-1.119 -0.932,-1.679c-0.379,-0.687 -0.758,-1.373 -1.137,-2.061c-0.274,-0.495 -0.547,-0.993 -0.821,-1.488c-0.382,-0.692 -0.764,-1.384 -1.146,-2.074c-0.305,-0.555 -0.609,-1.108 -0.916,-1.661c-0.313,-0.569 -0.629,-1.137 -0.943,-1.706c-0.303,-0.55 -0.607,-1.098 -0.908,-1.647c-0.34,-0.614 -0.676,-1.232 -1.015,-1.85c-0.421,-0.77 -0.841,-1.539 -1.266,-2.308c-0.392,-0.708 -0.791,-1.412 -1.183,-2.12c-0.467,-0.843 -0.926,-1.688 -1.391,-2.531c-0.254,-0.46 -0.519,-0.915 -0.769,-1.379c-0.351,-0.653 -0.698,-1.306 -1.15,-1.9c-0.421,-0.555 -0.841,-1.1 -1.364,-1.564c-0.686,-0.606 -1.465,-1.03 -2.343,-1.266c-0.38,-0.102 -0.776,-0.171 -1.17,-0.198c-0.53,-0.037 -1.062,-0.033 -1.591,0.075c-0.376,0.076 -0.742,0.177 -1.093,0.325c-0.631,0.267 -1.201,0.64 -1.706,1.102c-0.33,0.301 -0.649,0.62 -0.941,0.958c-0.334,0.389 -0.65,0.796 -0.941,1.219c-0.326,0.472 -0.625,0.963 -0.918,1.457c-0.314,0.529 -0.608,1.071 -0.91,1.608c-0.267,0.473 -0.534,0.944 -0.797,1.418c-0.38,0.686 -0.755,1.374 -1.135,2.059c-0.357,0.644 -0.722,1.284 -1.079,1.927c-0.311,0.56 -0.612,1.123 -0.924,1.681c-0.272,0.488 -0.554,0.973 -0.827,1.46c-0.352,0.628 -0.701,1.259 -1.05,1.891c-0.308,0.555 -0.613,1.112 -0.921,1.668c-0.309,0.559 -0.616,1.117 -0.926,1.674c-0.361,0.646 -0.724,1.29 -1.083,1.937c-0.321,0.576 -0.638,1.154 -0.958,1.73c-0.262,0.471 -0.529,0.938 -0.793,1.409c-0.303,0.541 -0.602,1.086 -0.905,1.627c-0.206,0.363 -0.357,0.748 -0.394,1.165c-0.021,0.239 -0.002,0.493 0.047,0.729c0.081,0.391 0.262,0.745 0.52,1.053c0.483,0.575 1.101,0.936 1.842,1.049c0.379,0.057 0.766,0.037 1.133,-0.098c0.558,-0.206 0.973,-0.584 1.267,-1.096c0.23,-0.4 0.451,-0.806 0.677,-1.208c0.309,-0.556 0.619,-1.109 0.928,-1.664c0.404,-0.728 0.807,-1.453 1.208,-2.181c0.324,-0.584 0.644,-1.172 0.969,-1.754c0.358,-0.641 0.724,-1.277 1.081,-1.918c0.348,-0.623 0.686,-1.249 1.031,-1.873c0.312,-0.562 0.627,-1.121 0.939,-1.682c0.281,-0.506 0.561,-1.01 0.84,-1.515l3.661,-6.618c0.157,-0.304 0.315,-0.608 0.476,-0.911c0.148,-0.278 0.307,-0.552 0.465,-0.825c0.013,-0.022 0.028,-0.045 0.05,-0.053l0.924,-1.672c0,0 0.584,-1.124 1.428,-1.124c0.843,0 1.225,0.705 1.471,1.118c0.204,0.344 9.588,17.506 12.772,23.33c0.175,0.312 0.351,0.624 0.554,0.917c0.405,0.582 1.001,0.835 1.695,0.878c0.109,0.008 0.223,-0.017 0.332,-0.036c0.19,-0.034 0.387,-0.054 0.565,-0.118c0.512,-0.185 0.947,-0.482 1.291,-0.912c0.244,-0.304 0.417,-0.643 0.49,-1.02c0.049,-0.248 0.072,-0.5 0.03,-0.763z" fill="#1E1E1E" clip-rule="evenodd" fill-rule="evenodd"/>
  <g id="svg_3">
   <g id="svg_4">
    <path id="svg_5" d="m59.415615,30.366768c-0.057,-0.348 -0.173,-0.664 -0.34,-0.966c-0.304,-0.55 -0.621,-1.092 -0.932,-1.636c-0.38,-0.67 -0.759,-1.339 -1.138,-2.009c-0.273,-0.484 -0.547,-0.968 -0.82,-1.451c-0.382,-0.674 -0.764,-1.349 -1.146,-2.021c-0.306,-0.541 -0.61,-1.081 -0.915,-1.619c-0.314,-0.556 -0.63,-1.109 -0.944,-1.663c-0.304,-0.535 -0.607,-1.07 -0.909,-1.605c-0.34,-0.6 -0.676,-1.201 -1.013,-1.803c-0.422,-0.75 -0.842,-1.501 -1.267,-2.249c-0.392,-0.69 -0.791,-1.376 -1.184,-2.067c-0.466,-0.82 -0.925,-1.645 -1.39,-2.467c-0.255,-0.449 -0.52,-0.892 -0.769,-1.344c-0.352,-0.637 -0.699,-1.272 -1.151,-1.853c-0.421,-0.539 -0.84,-1.071 -1.364,-1.524c-0.685,-0.59 -1.464,-1.004 -2.342,-1.233c-0.381,-0.1 -0.777,-0.167 -1.17,-0.193c-0.529,-0.036 -1.062,-0.033 -1.591,0.073c-0.376,0.074 -0.743,0.173 -1.093,0.317c-0.632,0.261 -1.201,0.624 -1.707,1.073c-0.33,0.294 -0.648,0.604 -0.94,0.934c-0.335,0.379 -0.65,0.776 -0.942,1.188c-0.325,0.461 -0.625,0.939 -0.918,1.42c-0.314,0.516 -0.607,1.045 -0.91,1.568c-0.266,0.461 -0.533,0.92 -0.796,1.382c-0.38,0.669 -0.755,1.339 -1.135,2.007c-0.01,0.016 -0.02,0.033 -0.028,0.049c-0.267,-0.464 -0.535,-0.93 -0.8,-1.396c-0.466,-0.82 -0.925,-1.645 -1.39,-2.467c-0.254,-0.449 -0.52,-0.892 -0.769,-1.344c-0.351,-0.637 -0.698,-1.272 -1.15,-1.853c-0.421,-0.539 -0.841,-1.071 -1.365,-1.524c-0.685,-0.59 -1.464,-1.004 -2.342,-1.233c-0.381,-0.1 -0.776,-0.167 -1.17,-0.193c-0.53,-0.036 -1.062,-0.033 -1.591,0.073c-0.376,0.074 -0.742,0.173 -1.093,0.317c-0.632,0.261 -1.201,0.624 -1.706,1.073c-0.331,0.294 -0.65,0.604 -0.941,0.934c-0.334,0.379 -0.65,0.776 -0.941,1.188c-0.326,0.461 -0.625,0.939 -0.918,1.42c-0.315,0.516 -0.608,1.045 -0.91,1.568c-0.267,0.461 -0.534,0.92 -0.797,1.382c-0.38,0.669 -0.755,1.339 -1.135,2.007c-0.357,0.627 -0.722,1.251 -1.079,1.878c-0.311,0.544 -0.612,1.094 -0.924,1.638c-0.272,0.476 -0.554,0.947 -0.827,1.422c-0.352,0.613 -0.701,1.229 -1.05,1.844c-0.308,0.541 -0.613,1.084 -0.921,1.627c-0.309,0.543 -0.616,1.087 -0.927,1.63c-0.36,0.63 -0.723,1.258 -1.083,1.888c-0.32,0.562 -0.637,1.125 -0.957,1.687c-0.263,0.459 -0.529,0.915 -0.793,1.373c-0.303,0.528 -0.601,1.059 -0.905,1.585c-0.206,0.355 -0.358,0.73 -0.395,1.136c-0.021,0.235 -0.001,0.481 0.048,0.712c0.081,0.382 0.262,0.727 0.52,1.025c0.483,0.561 1.101,0.913 1.842,1.022c0.378,0.056 0.766,0.036 1.133,-0.095c0.558,-0.2 0.973,-0.569 1.268,-1.067c0.229,-0.391 0.45,-0.785 0.676,-1.179c0.31,-0.54 0.619,-1.08 0.928,-1.621c0.403,-0.709 0.806,-1.416 1.208,-2.126c0.323,-0.569 0.644,-1.142 0.969,-1.709c0.358,-0.624 0.724,-1.245 1.081,-1.869c0.347,-0.606 0.686,-1.218 1.031,-1.824c0.311,-0.55 0.626,-1.095 0.939,-1.641c0.28,-0.493 0.561,-0.983 0.84,-1.476l3.661,-6.45c0.157,-0.296 0.314,-0.593 0.476,-0.888c0.147,-0.271 0.307,-0.538 0.465,-0.805c0.014,-0.022 0.029,-0.044 0.05,-0.053l0.923,-1.629c0,0 0.584,-1.096 1.428,-1.096s1.227,0.688 1.472,1.091c0.099,0.161 2.326,4.126 4.964,8.823l0.174,0.306c0,0 1.143,2.101 3.077,2.101s2.954,-2.377 2.954,-2.377l4.507,-7.994l-0.011,-0.004l0.482,-0.85c0,0 0.584,-1.096 1.427,-1.096s1.227,0.688 1.472,1.091c0.203,0.335 9.588,17.062 12.772,22.739c0.174,0.303 0.351,0.607 0.554,0.893c0.404,0.567 1.002,0.813 1.694,0.855c0.11,0.008 0.224,-0.016 0.333,-0.035c0.189,-0.033 0.387,-0.053 0.565,-0.115c0.511,-0.18 0.947,-0.471 1.291,-0.889c0.244,-0.296 0.417,-0.627 0.49,-0.994c0.048,-0.242 0.071,-0.487 0.03,-0.744z" fill="#1E1E1E" clip-rule="evenodd" fill-rule="evenodd"/>
   </g>
  </g>
  <g id="svg_6">
   <g id="svg_7">
    <path id="svg_8" d="m116.105615,5.420768c0.057,0.348 0.172,0.664 0.34,0.967c0.303,0.549 0.621,1.091 0.932,1.636c0.38,0.669 0.759,1.338 1.138,2.009c0.273,0.483 0.547,0.967 0.821,1.45c0.381,0.675 0.763,1.349 1.145,2.021c0.306,0.541 0.61,1.081 0.916,1.619c0.314,0.556 0.629,1.109 0.943,1.663c0.303,0.535 0.607,1.069 0.909,1.605c0.339,0.599 0.676,1.202 1.014,1.804c0.421,0.75 0.841,1.5 1.267,2.248c0.391,0.69 0.79,1.377 1.183,2.067c0.466,0.821 0.925,1.645 1.39,2.467c0.254,0.448 0.52,0.892 0.769,1.344c0.351,0.637 0.699,1.272 1.151,1.853c0.42,0.54 0.84,1.072 1.364,1.525c0.685,0.59 1.465,1.004 2.343,1.233c0.379,0.099 0.775,0.166 1.169,0.192c0.53,0.035 1.062,0.033 1.591,-0.072c0.377,-0.074 0.742,-0.174 1.093,-0.318c0.632,-0.261 1.201,-0.623 1.707,-1.073c0.33,-0.294 0.649,-0.604 0.94,-0.934c0.334,-0.379 0.65,-0.776 0.942,-1.188c0.325,-0.46 0.625,-0.938 0.918,-1.419c0.314,-0.518 0.607,-1.046 0.91,-1.569c0.266,-0.46 0.533,-0.921 0.796,-1.382c0.381,-0.668 0.755,-1.339 1.135,-2.008c0.01,-0.015 0.02,-0.031 0.028,-0.047c0.267,0.464 0.535,0.93 0.8,1.396c0.465,0.821 0.925,1.645 1.389,2.467c0.256,0.448 0.521,0.892 0.77,1.344c0.352,0.637 0.699,1.272 1.15,1.853c0.422,0.54 0.842,1.072 1.365,1.525c0.685,0.59 1.465,1.004 2.342,1.233c0.381,0.099 0.777,0.166 1.17,0.192c0.529,0.035 1.062,0.033 1.591,-0.072c0.376,-0.074 0.743,-0.174 1.093,-0.318c0.632,-0.261 1.201,-0.623 1.707,-1.073c0.33,-0.294 0.648,-0.604 0.939,-0.934c0.335,-0.379 0.651,-0.776 0.943,-1.188c0.325,-0.46 0.625,-0.938 0.918,-1.419c0.314,-0.518 0.607,-1.046 0.91,-1.569c0.266,-0.46 0.533,-0.921 0.796,-1.382c0.38,-0.668 0.755,-1.339 1.135,-2.008c0.358,-0.626 0.722,-1.25 1.079,-1.877c0.311,-0.544 0.613,-1.093 0.924,-1.637c0.272,-0.477 0.554,-0.949 0.826,-1.424c0.354,-0.613 0.702,-1.228 1.051,-1.842c0.309,-0.542 0.613,-1.085 0.921,-1.627c0.309,-0.544 0.616,-1.088 0.927,-1.631c0.36,-0.629 0.723,-1.258 1.083,-1.888c0.32,-0.562 0.637,-1.126 0.957,-1.687c0.263,-0.459 0.53,-0.915 0.793,-1.373c0.303,-0.527 0.601,-1.059 0.905,-1.585c0.205,-0.355 0.358,-0.729 0.395,-1.136c0.021,-0.234 0.001,-0.481 -0.048,-0.711c-0.081,-0.383 -0.261,-0.728 -0.52,-1.026c-0.483,-0.561 -1.101,-0.913 -1.842,-1.022c-0.378,-0.055 -0.766,-0.036 -1.132,0.095c-0.559,0.2 -0.974,0.569 -1.268,1.068c-0.229,0.39 -0.451,0.784 -0.677,1.179c-0.31,0.539 -0.619,1.079 -0.928,1.62c-0.403,0.708 -0.806,1.416 -1.208,2.126c-0.324,0.569 -0.643,1.142 -0.969,1.709c-0.357,0.625 -0.725,1.245 -1.081,1.87c-0.347,0.606 -0.686,1.217 -1.031,1.823c-0.311,0.549 -0.626,1.095 -0.939,1.641c-0.28,0.493 -0.561,0.984 -0.84,1.477l-3.66,6.45c-0.158,0.296 -0.315,0.592 -0.476,0.888c-0.148,0.271 -0.308,0.538 -0.465,0.805c-0.015,0.022 -0.03,0.043 -0.051,0.052l-0.924,1.629c0,0 -0.584,1.096 -1.427,1.096c-0.844,0 -1.226,-0.688 -1.472,-1.09c-0.098,-0.162 -2.326,-4.126 -4.963,-8.825l-0.175,-0.305c0,0 -1.143,-2.1 -3.077,-2.1s-2.954,2.377 -2.954,2.377l-4.507,7.993l0.01,0.005l-0.48,0.849c0,0 -0.584,1.096 -1.428,1.096c-0.843,0 -1.227,-0.688 -1.471,-1.09c-0.204,-0.335 -9.588,-17.062 -12.773,-22.739c-0.174,-0.304 -0.35,-0.607 -0.554,-0.893c-0.404,-0.568 -1.002,-0.814 -1.695,-0.856c-0.109,-0.008 -0.223,0.017 -0.332,0.036c-0.19,0.032 -0.386,0.052 -0.565,0.115c-0.512,0.18 -0.947,0.47 -1.291,0.889c-0.244,0.295 -0.417,0.626 -0.49,0.993c-0.049,0.241 -0.071,0.486 -0.03,0.743z" fill="#1E1E1E" clip-rule="evenodd" fill-rule="evenodd"/>
   </g>
  </g>
 </g>
</svg>